<svg id="jhinitials-white" xmlns="http://www.w3.org/2000/svg" viewBox="0 0 180.78 154">
  <style>
    .white-fill{fill:#ffffff}
  </style>
  <g id="j">
    <circle class="white-fill" cx="62.85" cy="110.93" r="15" opacity="0.3"/>
    <polygon class="white-fill" points="76.41 108.21 53.57 95.79 53.74 5.21 76.57 17.63 76.41 108.21" opacity="0.2"/>
    <polygon class="white-fill" points="75.9 17.69 53.54 5.21 79.82 1.54 102.61 13.94 75.9 17.69" opacity="0.4"/>
    <path class="white-fill" opacity="0.3" d="M48.34,151.64l-22.79-12.4a31.93,31.93,0,0,1-5.77-4c-8.09-7-12.68-17.83-12.68-29.76,0-23.75,18-45.6,40-48.7l22.79,12.4c-22,3.1-39.95,25-40,48.71,0,11.92,4.6,22.76,12.68,29.75A31.93,31.93,0,0,0,48.34,151.64Z" transform="translate(-7.1 -1.73)"/>
    <path id="shape" class="white-fill" d="M109.67,15.63l-.21,90.44c0,22.79-16.33,44.21-37,48.74-1,.21-1.93.39-2.88.52a34,34,0,0,1-27.24-7.7c-8.08-7-12.7-17.84-12.67-29.77,0-23.76,18-45.61,40-48.71V98.2c-7.21,1-13.06,8.16-13.08,16a12.52,12.52,0,0,0,4.15,9.72,10.93,10.93,0,0,0,8.86,2.53,4.68,4.68,0,0,0,1-.19c6.76-1.48,12.07-8.64,12.08-16.3l.17-90.45Z" transform="translate(-7.1 -1.73)"/>
  </g>
  <g id="h">
    <polygon class="white-fill" opacity="0.2" points="148.57 153.62 121.69 140.87 121.81 85.85 148.69 98.6 148.57 153.62"/>
    <polygon class="white-fill" opacity="0.2" points="149.76 71.66 122.88 58.91 122.99 3.57 149.88 16.33 149.76 71.66"/>
    <polygon class="white-fill" opacity="0.4" points="149.79 16.35 122.93 3.44 154.32 0 180.78 12.55 149.79 16.35"/>
    <polygon class="white-fill" opacity="0.4" points="102.42 76.8 75.52 65.05 122.88 58.49 149.24 71.26 102.42 76.8"/>
    <polygon class="white-fill" opacity="0.3" points="102.57 105.21 75.57 93.31 75.63 64.99 102.57 76.87 102.57 105.21"/>
    <polygon id="shape-2" class="white-fill" points="180.57 12.57 180.57 149.69 148.57 153.62 148.68 99.48 102.35 105.24 102.42 76.8 149.57 71.22 149.88 16.33 180.57 12.57"/>
  </g>
</svg>
